<svg xmlns="http://www.w3.org/2000/svg" viewBox="0 0 275.69 56.2"><defs><style>.cls-1{fill:#fff;}</style></defs><title>Resurs 2</title><g id="Lager_2" data-name="Lager 2"><g id="Lager_1-2" data-name="Lager 1"><path class="cls-1" d="M6,13.52a4.26,4.26,0,0,1-2.6-.27,6.17,6.17,0,0,1,0-1.48,14.57,14.57,0,0,1,.33-1.85q.25-1.07.75-2.6t1.3-3.77q.8-.3,1.68-.67t1.77-.73A32.6,32.6,0,0,1,16.16.45,55.07,55.07,0,0,1,23.23,0a4,4,0,0,1,.65,0,6.07,6.07,0,0,1,.65.15l2.83.68q1.37.33,2.77.72a4.09,4.09,0,0,1,1.8,1.05,26.62,26.62,0,0,1,1.85,2A9.79,9.79,0,0,1,35.18,7a10.11,10.11,0,0,1,.7,2.67,8,8,0,0,1-.2,2.78A17.93,17.93,0,0,1,25,25.65,25.61,25.61,0,0,1,20.93,27l-4.2,1a3.39,3.39,0,0,1-.67.13l-.62.07a3.55,3.55,0,0,0-2.18.73,5.14,5.14,0,0,0-1.37,1.88q-.75,1.85-1.57,3.65T8.73,38a4.19,4.19,0,0,1-.8,1.2,2.13,2.13,0,0,1-1.3.55,15.05,15.05,0,0,0-1.55.38l-1.5.42-.77.2a5.9,5.9,0,0,1-.78.15A2.15,2.15,0,0,1,.38,40.6,1.76,1.76,0,0,1,0,39a15,15,0,0,1,.3-1.7,9.55,9.55,0,0,1,.55-1.65q1.05-2.6,2.15-5.2t2.25-5.2A37.07,37.07,0,0,0,7.33,19.7L8.93,14a.83.83,0,0,0,0-.4L8.78,13Q7.33,13.25,6,13.52Zm5.55,1.73s-.05.06-.05.07,0,0,0,.08a.56.56,0,0,1,.1-.15.21.21,0,0,0,0-.15.86.86,0,0,0,.45-.57,2.68,2.68,0,0,0,0-.73,1.73,1.73,0,0,0,.88-1q.17-.62.32-1.33a7.4,7.4,0,0,1,.3-1.6,1.24,1.24,0,0,0,.8-.65,4.44,4.44,0,0,0,.3-1,6,6,0,0,1,.7-1.55q.45-.7,1-1.4A4.9,4.9,0,0,1,17.41,4.2a2.62,2.62,0,0,1,1.53-.4,6.88,6.88,0,0,0,1.52-.17q.77-.18,1.57-.33a1.25,1.25,0,0,0,.38-.3A2.66,2.66,0,0,1,23,2.55a19.48,19.48,0,0,0-6.08,0q-2.82.5-5.67,1.2-.7.2-1.42.48a3,3,0,0,0-1.28,1A3.68,3.68,0,0,0,10,5.17q.67-.17,1.35-.4a10.09,10.09,0,0,1,1.35-.35,3.48,3.48,0,0,1,1.38,0q0,.6.1,1.1a5.62,5.62,0,0,1,0,1,3.57,3.57,0,0,1-.17.75,3.52,3.52,0,0,0-.18.75,7.68,7.68,0,0,0-.2,1.85,6.51,6.51,0,0,0-.15.8l-.1.8a2,2,0,0,0-.93,1,4.92,4.92,0,0,0-.27,1.33l-.2.6c-.07.2-.13.42-.2.65A.57.57,0,0,0,11.58,15.25Zm6.6,6.1a7.52,7.52,0,0,0,1.3-.2,11.36,11.36,0,0,0,8.3-6.65,3.15,3.15,0,0,0,.05-3,3.41,3.41,0,0,0-2.6-1.63,4.41,4.41,0,0,0-1.15,0,7.14,7.14,0,0,1-1.2,0A1.81,1.81,0,0,0,21,10.95l-1,2q-.5,1-.95,2-.7,1.5-1.37,3.05a17.62,17.62,0,0,0-1.08,3.5Q17.48,21.4,18.18,21.35ZM30.48,4.77l.1-.08a.4.4,0,0,0-.05-.25,5.24,5.24,0,0,0-1.8-1,4.57,4.57,0,0,0-2.15.15l1.92.7q.93.35,1.83.65A.72.72,0,0,1,30.48,4.77Z"/><path class="cls-1" d="M33.06,17a3.42,3.42,0,0,1,1.57-.15q1.15.1,2.27.15t2.28.15l3,.3q1.5.15,3,.35a1.4,1.4,0,0,1,1.13.67,1.48,1.48,0,0,1,.08,1.28,5.33,5.33,0,0,1-.3.85q-.2.45-.4.85-1.45,2.55-2.83,5t-2.77,5a6.48,6.48,0,0,1-.32.57,2.35,2.35,0,0,0-.28.63,6.13,6.13,0,0,0-.47,2.43,3.4,3.4,0,0,0,1.07,2.27,2.33,2.33,0,0,1,.4.52,6.06,6.06,0,0,0,.4.63l-.45.45a1.33,1.33,0,0,1-.45.3,16.18,16.18,0,0,1-1.67.4l-1.67.3q-.55.1-1.15.15l-1.2.1-3.05.22q-1.5.12-3.1.13a2.23,2.23,0,0,1-2-.92,2.7,2.7,0,0,1-.4-2.17,6.35,6.35,0,0,1,.8-2q1.55-2.9,2.8-5.88t2.4-6.08l.27-.62a4.58,4.58,0,0,0,.23-.62q.35-.8.52-1.25a1.68,1.68,0,0,0,.13-.82,2.18,2.18,0,0,0-.33-.83q-.28-.45-.77-1.2A2.34,2.34,0,0,1,33.06,17ZM29,37.77a1.43,1.43,0,0,0,.6-.68q1.45-2.75,2.82-5.42t2.73-5.48q.5-1.1.9-2.23l.8-2.27A3.51,3.51,0,0,0,37,21c0-.25-.19-.46-.62-.62A18.31,18.31,0,0,1,35.16,24a30,30,0,0,1-1.77,3.4q-1.15,1.9-2.25,3.85T29,35.1a6.17,6.17,0,0,0-.57,1.15q-.22.6-.48,1.15Q28.63,38,29,37.77ZM41.46,20.3a12.75,12.75,0,0,1,2.13-.3,5.35,5.35,0,0,0-2.12-.37,18.92,18.92,0,0,0-2.43.22A3.46,3.46,0,0,0,41.46,20.3ZM50.11,9a5.76,5.76,0,0,1-.73,3,5.31,5.31,0,0,1-1.17,1.42,5.22,5.22,0,0,1-1.6,1,5.55,5.55,0,0,1-1.8.35A4.29,4.29,0,0,1,43,14.4a7.77,7.77,0,0,1-1.85-1.05,4.62,4.62,0,0,1-1.83-2.42,4.3,4.3,0,0,1,.52-3q2.05-4,7-3.1a7.84,7.84,0,0,1,1.25.4q.6.25,1.2.45A10.23,10.23,0,0,1,50.11,9Zm-7.8-.82a3.55,3.55,0,0,0-.87,2.65L43,8.67q.72-1,1.43-1.87a.94.94,0,0,1,.25-.08c.1,0,.12,0,0,0s.06,0,0,0a.67.67,0,0,0-.23.15A5.78,5.78,0,0,0,42.31,8.15Z"/><path class="cls-1" d="M56,33.67a9.78,9.78,0,0,0,2.7-.12q2-.4,4-.85l3.95-.9a5.69,5.69,0,0,0,1.05-.4,10,10,0,0,1,1-.45l.42-.07a.42.42,0,0,1,.55.4.51.51,0,0,1,0,.42q-.3.75-.65,1.48l-.7,1.42q-.55.9-1.12,1.78t-1.12,1.88a2,2,0,0,1-1.3,1,13,13,0,0,1-2.6.52q-1.3.13-2.6.13a4.31,4.31,0,0,1-.8-.08,2.6,2.6,0,0,0-.8,0,19.62,19.62,0,0,1-5.25-.5,33.41,33.41,0,0,1-5-1.6,7,7,0,0,1-1.17-.57q-.53-.33-1-.68a2.31,2.31,0,0,1-.55-.52l-.5-.67a10.39,10.39,0,0,1,2-2,22.54,22.54,0,0,0,2.07-1.75,22,22,0,0,1,2.1-1.85,27.3,27.3,0,0,0,2.15-1.85,25.55,25.55,0,0,1,1.9-1.9,8.13,8.13,0,0,0,1.65-2q-.1-.4-.3-.4h-.45q-1.1.1-2.23.15t-2.23,0a5.17,5.17,0,0,1-2-.48,2.54,2.54,0,0,1-1.3-1.52,2.31,2.31,0,0,1,0-2,6.19,6.19,0,0,1,1.23-1.58,16.33,16.33,0,0,1,1.82-1.3q1-.6,2-1.15a5.91,5.91,0,0,1,2-.73A8.32,8.32,0,0,1,57,14.85q1.9,0,3.73.15a14,14,0,0,1,3.63.8q2.1.75,4.15,1.7a1.24,1.24,0,0,1,.55,2q-.4.6-.82,1.15l-.83,1.05a42.31,42.31,0,0,1-6.65,5.75l-3.35,2.38L54.13,32.2a2.53,2.53,0,0,0-.42.43,4,4,0,0,1-.52.52A16.05,16.05,0,0,0,56,33.67Zm1-17.23a10.23,10.23,0,0,0-2.45.4,7.92,7.92,0,0,0-2.35,1.05,5.82,5.82,0,0,0-1.75,1.85l-.2.38c-.07.12,0,.24.2.38q1-.8,1.57-1.33t1-.85a4.38,4.38,0,0,1,.88-.52A7.51,7.51,0,0,1,55,17.42q.68-.17,1.77-.37l2.9-.5A19,19,0,0,0,57,16.45Zm7.2,1.05-.1,0,.1.1Z"/><path class="cls-1" d="M76.33,33.67a9.78,9.78,0,0,0,2.7-.12q2-.4,4-.85L87,31.8A5.69,5.69,0,0,0,88,31.4a10,10,0,0,1,1-.45l.42-.07a.42.42,0,0,1,.55.4.51.51,0,0,1,0,.42q-.3.75-.65,1.48l-.7,1.42q-.55.9-1.12,1.78t-1.12,1.88a2,2,0,0,1-1.3,1,13,13,0,0,1-2.6.52q-1.3.13-2.6.13a4.31,4.31,0,0,1-.8-.08,2.6,2.6,0,0,0-.8,0,19.62,19.62,0,0,1-5.25-.5,33.41,33.41,0,0,1-5-1.6,7,7,0,0,1-1.17-.57q-.53-.33-1-.68a2.31,2.31,0,0,1-.55-.52l-.5-.67a10.39,10.39,0,0,1,2-2,22.54,22.54,0,0,0,2.07-1.75A22,22,0,0,1,71,29.7a27.3,27.3,0,0,0,2.15-1.85,25.55,25.55,0,0,1,1.9-1.9,8.13,8.13,0,0,0,1.65-2q-.1-.4-.3-.4h-.45q-1.1.1-2.23.15t-2.23,0a5.17,5.17,0,0,1-2-.48,2.54,2.54,0,0,1-1.3-1.52,2.31,2.31,0,0,1,0-2,6.19,6.19,0,0,1,1.23-1.58,16.33,16.33,0,0,1,1.82-1.3q1-.6,2-1.15a5.91,5.91,0,0,1,2-.73,8.32,8.32,0,0,1,2.15-.08q1.9,0,3.73.15a14,14,0,0,1,3.63.8q2.1.75,4.15,1.7a1.24,1.24,0,0,1,.55,2q-.4.6-.82,1.15l-.83,1.05a42.31,42.31,0,0,1-6.65,5.75l-3.35,2.38L74.48,32.2a2.53,2.53,0,0,0-.42.43,4,4,0,0,1-.52.52A16.05,16.05,0,0,0,76.33,33.67Zm1-17.23a10.23,10.23,0,0,0-2.45.4,7.92,7.92,0,0,0-2.35,1.05,5.82,5.82,0,0,0-1.75,1.85l-.2.38c-.07.12,0,.24.2.38q1-.8,1.57-1.33t1-.85a4.38,4.38,0,0,1,.88-.52,7.51,7.51,0,0,1,1.13-.37q.68-.17,1.77-.37l2.9-.5A19,19,0,0,0,77.33,16.45Zm7.2,1.05-.1,0,.1.1Z"/><path class="cls-1" d="M118.5,32.62c2.8,0-.91,3.64-1,3.71-4.14-1.63-4.55,2.49-7.12,3.43a5,5,0,0,1-3.12.32,5.69,5.69,0,0,1-2.52-1.92l-.4-.52q-.2-.27-.45-.68l-.82.3-.83.3Q101,38,100,38.47t-2.23.88a8.69,8.69,0,0,1-4.4.43,8.43,8.43,0,0,1-4-2.08A11.35,11.35,0,0,1,87,34.8a20.17,20.17,0,0,1-1.5-3.35,5,5,0,0,1,.05-3.35A14.75,14.75,0,0,1,87.43,24a19.6,19.6,0,0,1,2.9-3.42,21.09,21.09,0,0,1,4.2-3.17,26.5,26.5,0,0,1,4.85-2.18,15.53,15.53,0,0,1,4.27-.77,10.87,10.87,0,0,1,4.32.77,2.24,2.24,0,0,0,.75.18,4.22,4.22,0,0,0,.8,0q.7,0,1.45-.07l1.45-.12a2.91,2.91,0,0,1,1.73.3,8.6,8.6,0,0,1,1.42,1,2.9,2.9,0,0,1,.93,1.83,3.22,3.22,0,0,1-.48,2.07q-.6,1.05-1.25,2.05t-1.35,1.95a19.36,19.36,0,0,0-3,5.7,5.81,5.81,0,0,0-.2,2.6,3.43,3.43,0,0,0,1.8,2.25A10.07,10.07,0,0,1,118.5,32.62ZM102.73,15.8a9,9,0,0,0-3.15.85,33.55,33.55,0,0,0-4.48,2.52,13.13,13.13,0,0,0-3.62,3.67l-1,1.4q-.5.7-1,1.35a6.19,6.19,0,0,0-1.08,1.7,10,10,0,0,0-.57,1.9,1.51,1.51,0,0,0,0,.48c0,.15.21.24.57.27q.35-.7.65-1.37t.65-1.37l.6-1.23a3.22,3.22,0,0,1,.75-1q1-.95,2-2A25.53,25.53,0,0,1,95.08,21a19.73,19.73,0,0,1,2.3-1.62A11.94,11.94,0,0,1,100,18.25q.8-.25,1.6-.58a6.37,6.37,0,0,1,1.7-.42,6.63,6.63,0,0,0,1.38-.35q.68-.25,1.63-.55A8.28,8.28,0,0,0,102.73,15.8ZM98.86,31.7h.43l.38-.17a2,2,0,0,0,.32-.18,7.43,7.43,0,0,0,2.8-1.95,15.51,15.51,0,0,0,1.95-2.8,2.19,2.19,0,0,0,.3-1.37,3.53,3.53,0,0,0-.55-1.32,2,2,0,0,0-1.1-.9,3.27,3.27,0,0,0-1.4-.1,7.42,7.42,0,0,0-6,4.65,3.8,3.8,0,0,0-.22,1.15q0,.6,0,1.2a1.54,1.54,0,0,0,1.2,1.55,3.5,3.5,0,0,0,.77.2l.68.1A2.43,2.43,0,0,1,98.86,31.7Z"/><path class="cls-1" d="M108.51,47.17q.68-.58,1.38-1.27,1.4-1.55,2.73-3.15a15.22,15.22,0,0,0,2.18-3.5q1.6-3.45,3.07-7t2.93-7.1a6.71,6.71,0,0,0,.45-2.05,3,3,0,0,0-.75-2,1,1,0,0,1-.23-1,1.28,1.28,0,0,1,.73-.82,4.78,4.78,0,0,1,.85-.33,5.65,5.65,0,0,1,1-.17l1.7-.18q.85-.07,1.8-.07a29.68,29.68,0,0,0,6.65-.45,1.39,1.39,0,0,1,1.75.8,2.33,2.33,0,0,1,.1,1.35,9.5,9.5,0,0,0-.43,1q-.18.48-.42,1l-5.2,10.58q-2.6,5.28-5.55,10.42a39.46,39.46,0,0,1-3.25,4.93q-1.8,2.32-3.8,4.52a10.16,10.16,0,0,1-2.55,2,14,14,0,0,1-3,1.23,8.56,8.56,0,0,1-4.1.1,10.34,10.34,0,0,1-3.8-1.75,6,6,0,0,1-.77-.7l-.73-.75a3.36,3.36,0,0,1-1.15-3,10.86,10.86,0,0,1,.5-2.57c1.16-3.57,5.19-6.13,8.73-6.82,1.51-.29,3.55-.62,5,0a1.54,1.54,0,0,1,1.05,1.19,6.84,6.84,0,0,1-.85,2.14c.41.47-2,.15-2.23.12-1.41-.2-2.94-.68-4.36-.35A2.55,2.55,0,0,0,106,46a2.61,2.61,0,0,0,.75,2A4.1,4.1,0,0,0,108.51,47.17ZM118.73,36.6q.6-.85,1.2-1.75A20.91,20.91,0,0,0,121,33q.65-1.15,1.22-2.35l1.18-2.45.4-.82a4.22,4.22,0,0,0,.3-.87q.2-1.25.33-2.53t.27-2.57a.63.63,0,0,0,0-.23l-.15-.37a3.54,3.54,0,0,1-.5.25.57.57,0,0,0-.3.2,7.93,7.93,0,0,0-.15.95,9.46,9.46,0,0,0,0,1,6.25,6.25,0,0,1-.2,2.25,15.61,15.61,0,0,1-.8,2.15q-.85,1.85-1.7,3.75t-1.75,3.8a8.25,8.25,0,0,1-.58,1,13.07,13.07,0,0,0-.67,1.48v.2A6,6,0,0,0,118.73,36.6Zm17.45-23.9a6.8,6.8,0,0,1-2.3,2.15,1.94,1.94,0,0,1-1.5.3,12.17,12.17,0,0,1-1.7-.33l-1.7-.48a6.32,6.32,0,0,1-1.5-.55,3.07,3.07,0,0,1-1.35-4.15,9.78,9.78,0,0,1,2.23-3.25,7.16,7.16,0,0,1,3.58-1.75,4.28,4.28,0,0,1,1.73,0,4.68,4.68,0,0,1,1.5.65,3.91,3.91,0,0,1,1.13,1.15,4.18,4.18,0,0,1,.6,1.55,3.12,3.12,0,0,1,.1.75v.6A5.65,5.65,0,0,1,136.18,12.7Zm-7.73,8.12a.56.56,0,0,1,0,.18l.45-.1.45-.1a.87.87,0,0,1-.07-.23c0-.08,0-.12-.08-.12l-.4.08a1.24,1.24,0,0,0-.4.13A.54.54,0,0,0,128.46,20.82Zm.67-9.92L129,11a.28.28,0,0,0,.1.2l.15-.15Zm1.35-2.05-.25.15.05,0c.07.07.12.1.15.1l.17-.15.18-.15a0,0,0,0,1-.05,0s0,0,0,0,0,0,0-.05A.77.77,0,0,1,130.48,8.85Z"/><path class="cls-1" d="M161.13,34.4l1.4-.5a5.91,5.91,0,0,0,.65-.23,2.72,2.72,0,0,1,.6-.17,1,1,0,0,1,.52,0,.91.91,0,0,1,.42.3.66.66,0,0,1,.08.43c0,.18,0,.36,0,.52s-.07.13-.2.2a15.13,15.13,0,0,1-6.6,4.75,5,5,0,0,1-3.12.32,5.69,5.69,0,0,1-2.52-1.92l-.4-.52q-.2-.27-.45-.68l-.82.3-.83.3q-1.15.45-2.23.92t-2.23.88a8.69,8.69,0,0,1-4.4.43,8.43,8.43,0,0,1-4-2.08,11.35,11.35,0,0,1-2.35-2.9,20.17,20.17,0,0,1-1.5-3.35,5,5,0,0,1,.05-3.35,14.75,14.75,0,0,1,1.9-4.12,19.6,19.6,0,0,1,2.9-3.42,21.09,21.09,0,0,1,4.2-3.17A26.5,26.5,0,0,1,147,15.2a15.53,15.53,0,0,1,4.27-.77,10.87,10.87,0,0,1,4.32.77,2.24,2.24,0,0,0,.75.18,4.22,4.22,0,0,0,.8,0q.7,0,1.45-.07l1.45-.12a2.91,2.91,0,0,1,1.73.3,8.6,8.6,0,0,1,1.42,1,2.9,2.9,0,0,1,.93,1.83,3.22,3.22,0,0,1-.48,2.07q-.6,1.05-1.25,2.05t-1.35,1.95a19.36,19.36,0,0,0-3,5.7,5.81,5.81,0,0,0-.2,2.6,3.43,3.43,0,0,0,1.8,2.25ZM150.38,15.8a9,9,0,0,0-3.15.85,33.55,33.55,0,0,0-4.48,2.52,13.13,13.13,0,0,0-3.62,3.67l-1,1.4q-.5.7-1,1.35A6.19,6.19,0,0,0,136,27.3a10,10,0,0,0-.57,1.9,1.51,1.51,0,0,0,0,.48c0,.15.21.24.57.27q.35-.7.65-1.37t.65-1.37l.6-1.23a3.22,3.22,0,0,1,.75-1q1-.95,2-2a25.53,25.53,0,0,1,2.1-1.92,19.73,19.73,0,0,1,2.3-1.62,11.94,11.94,0,0,1,2.65-1.17q.8-.25,1.6-.58a6.37,6.37,0,0,1,1.7-.42,6.63,6.63,0,0,0,1.38-.35q.68-.25,1.63-.55A8.28,8.28,0,0,0,150.38,15.8Zm-3.87,15.9h.43l.38-.17a2,2,0,0,0,.32-.18,7.43,7.43,0,0,0,2.8-1.95,15.51,15.51,0,0,0,1.95-2.8,2.19,2.19,0,0,0,.3-1.37,3.53,3.53,0,0,0-.55-1.32A2,2,0,0,0,151,23a3.27,3.27,0,0,0-1.4-.1,7.42,7.42,0,0,0-6,4.65,3.8,3.8,0,0,0-.22,1.15q0,.6,0,1.2a1.54,1.54,0,0,0,1.2,1.55,3.5,3.5,0,0,0,.77.2l.68.1A2.43,2.43,0,0,1,146.51,31.7Z"/><path class="cls-1" d="M181.08,36.7a10.35,10.35,0,0,0,2.9.8l1.23.13a8.2,8.2,0,0,1,1.17.22.51.51,0,0,1,.43.5.74.74,0,0,1-.28.65c-.1.1-.17.15-.2.15a15.37,15.37,0,0,1-6.55,2,11.88,11.88,0,0,1-6.6-1.65l-1-.58a4.27,4.27,0,0,0-.65-.35,2.74,2.74,0,0,0-.62-.17l-.93-.1-.52.73-.57.77a1.59,1.59,0,0,0-.43,0,1.35,1.35,0,0,1-.37.05L165,40,162,40a2,2,0,0,1-1.52-.52,1.51,1.51,0,0,1-.23-1.48q.4-1.2.83-2.37t.92-2.33q.85-1.9,1.75-3.8t1.75-3.8q1.1-2.7,2.15-5.35t2-5.4a17.06,17.06,0,0,0,.68-2.83q.22-1.47.57-2.88a5.32,5.32,0,0,0,0-1.92A3.74,3.74,0,0,0,170,5.7a.91.91,0,0,1-.12-.42,1.89,1.89,0,0,0-.12-.52,13.05,13.05,0,0,1,1.77-.83,4.47,4.47,0,0,1,2-.23q2.4.1,4.73.15a19.2,19.2,0,0,0,4.73-.5,1.76,1.76,0,0,1,.92.05,1.2,1.2,0,0,1,.73.7q-.8,1.7-1.6,3.35t-1.55,3.35q-.7,1.6-1.53,3.25a12.13,12.13,0,0,0-1.12,3.55l.93.08.77,0q.55,0,1.13,0a6.46,6.46,0,0,1,1.13,0,6.27,6.27,0,0,1,3.23,1.1,5.11,5.11,0,0,1,1.88,2.85,18.67,18.67,0,0,1,.6,2.58,5.68,5.68,0,0,1-.2,2.58,9.62,9.62,0,0,1-1.25,2.8A22.51,22.51,0,0,1,185.13,32a2.28,2.28,0,0,1-.6.42l-.75.38q-1.3.45-2.57.92t-2.73,1.08A8.35,8.35,0,0,0,181.08,36.7ZM170.56,19.2q.32-.1.22-.55a1.75,1.75,0,0,1,.35-.18.84.84,0,0,0,.3-.17,31.46,31.46,0,0,0,2.38-5.37,13.22,13.22,0,0,0,.57-5.77,1.22,1.22,0,0,1,.83-.62,5.89,5.89,0,0,1,.92-.08l1.4,0,1.35,0a1.34,1.34,0,0,0,.5-.1q.25-.1.1-.6a9.77,9.77,0,0,0-3,0q-1.45.2-2.9.35-.1,1.15-.2,2.15l-.2,2a11.37,11.37,0,0,1-.35,1.9q-.25.9-.6,1.8a12.2,12.2,0,0,0-.85,2.37q-.3,1.23-.6,2.38l-.48.4a2.81,2.81,0,0,0-.37.4c.07.07.1.12.1.15s0,.1-.05.2a1.32,1.32,0,0,0,0-.4A2.61,2.61,0,0,1,170.56,19.2Zm8.27,4.8a2.67,2.67,0,0,0-1.65.15A6,6,0,0,0,174,27a1.17,1.17,0,0,0-.17,1,1.28,1.28,0,0,0,.73.75,2.91,2.91,0,0,0,3.15-.25,7,7,0,0,0,2.5-3.4A2.86,2.86,0,0,0,178.83,24Z"/><path class="cls-1" d="M215.28,11.72a4.73,4.73,0,0,1,1.6,0q.4.1.82.17a1.23,1.23,0,0,1,.68.33.93.93,0,0,1,.55,1q-.1.58-.2,1.08a2.46,2.46,0,0,1-.33.85,1.06,1.06,0,0,1-.73.45q-.7.1-1.42.15t-1.43.15l-2.77.38a2.91,2.91,0,0,0-2.42,1.55q-.45.73-1.35,2.13a14.33,14.33,0,0,1-1.2,1.6q-.65.75-1.3,1.6-1.6,1.9-3,3.92t-2.7,4.23a2.89,2.89,0,0,0-.3.85.68.68,0,0,0,.17.65.71.71,0,0,0,.68.3l1.25-.37,1.25-.37q1.1.4.45,1.6a1.29,1.29,0,0,1-.42.55,4.39,4.39,0,0,0-.52.45q-1.3,1-2.6,2.05a31,31,0,0,1-2.7,1.95,9.71,9.71,0,0,1-3,1.2,8.79,8.79,0,0,1-3.23.1,3.69,3.69,0,0,1-2.67-1.35,3.59,3.59,0,0,1-.58-2.9,11.48,11.48,0,0,1,.5-2.08,13.82,13.82,0,0,1,.85-2q.8-1.55,1.68-3t1.72-3q1-1.65,2-3.37t1.85-3.43a2.68,2.68,0,0,0,.35-.9,9.12,9.12,0,0,1,.3-1.1l-1.15-.2a4.87,4.87,0,0,0-1-.1,1.3,1.3,0,0,1-1-1.25,1.91,1.91,0,0,1,.07-1,1.13,1.13,0,0,1,.73-.68,7.09,7.09,0,0,1,2.4-.6,3.3,3.3,0,0,0,3.3-2.7,18.17,18.17,0,0,1,.5-1.87,3.77,3.77,0,0,0,0-2,1.43,1.43,0,0,1,.27-1.43,1.47,1.47,0,0,1,1.53-.42,31.47,31.47,0,0,0,5.88.15q2.92-.2,5.88-.15H215a2.86,2.86,0,0,1,.55,0,.64.64,0,0,1,.6.4.67.67,0,0,1,.05.65q-.35.7-.73,1.4t-.73,1.45q-.35.6-.75,1.18a2,2,0,0,0-.3,1.42A2.49,2.49,0,0,0,215.28,11.72Zm-24,20.4a12.85,12.85,0,0,0-.87,1.57l-.3.8a2.14,2.14,0,0,0-.15.75,1.9,1.9,0,0,0,.22.95q.23.4.88.25.4-1.45.88-2.82t.93-2.73A3.59,3.59,0,0,0,191.31,32.13Zm4-5.37a1.29,1.29,0,0,0,.5-.45q.95-1.3,1.8-2.55t1.65-2.6q.65-.95,1.25-2a10.63,10.63,0,0,0,1-2.6q-.55.5-.78.67a1.13,1.13,0,0,0-.32.38q-1.55,2.35-3.05,4.68a30.15,30.15,0,0,0-2.55,4.88q-.25.25-.48.52a5.42,5.42,0,0,1-.62.63q.95,0,1-.42a2.42,2.42,0,0,0,0-.78A3.06,3.06,0,0,1,195.28,26.75Zm9.2-16a3.32,3.32,0,0,0,.42-.77,2.66,2.66,0,0,0,.15-.7q0-.35,0-1a1.15,1.15,0,0,0-.12-.6c-.08-.13-.29-.15-.62-.05A19.75,19.75,0,0,1,204,9.77q-.22,1.08-.37,2.12Q204.18,11.2,204.48,10.77Zm3.2-3.52V7.4H208A.87.87,0,0,0,207.68,7.25Z"/><path class="cls-1" d="M217.78,33a5.51,5.51,0,0,0,.7.85,5,5,0,0,0,3.27,1.43,6.66,6.66,0,0,0,3.68-.83l.95-.52,1-.52q.1-.1.3,0a1.19,1.19,0,0,1,.3.2.89.89,0,0,1,.18.28.23.23,0,0,1,0,.27,4.6,4.6,0,0,1-.7,1.4,13.39,13.39,0,0,1-4.35,3.17,16.12,16.12,0,0,1-5.2,1.33,7,7,0,0,1-4.5-1,7.85,7.85,0,0,1-3-3.62,2.12,2.12,0,0,1-.32-.57,3.76,3.76,0,0,0-.27-.58,6,6,0,0,1-.93-2.83,7.53,7.53,0,0,1,.43-2.87l1-2.52q.47-1.22,1-2.52a11.69,11.69,0,0,1,1.77-2.87,17.36,17.36,0,0,1,2.38-2.33q1.1-.85,2.27-1.6t2.42-1.45a2.18,2.18,0,0,1,.83-.35,4.28,4.28,0,0,1,.88-.1,14.12,14.12,0,0,1,3.45.33,9.37,9.37,0,0,1,3.2,1.37A7.27,7.27,0,0,1,230,17.92a5.16,5.16,0,0,1,.92,1.77,21.59,21.59,0,0,1,.65,2.4,6.74,6.74,0,0,1,0,2.45q-.1.5-.2,1a2.69,2.69,0,0,1-.35.93,14.85,14.85,0,0,1-2.3,2.85,9.15,9.15,0,0,1-3.15,2,11.72,11.72,0,0,1-6.85.45.63.63,0,0,0-.42-.05,2.42,2.42,0,0,1-.52.05A1.35,1.35,0,0,0,217.78,33Zm5.52-16.25a10,10,0,0,0-1.27.4,19.93,19.93,0,0,0-5.55,3.27,16.68,16.68,0,0,0-4,5.08,1.23,1.23,0,0,0-.12.38q0,.18-.07.38a.67.67,0,0,0,.6-.4q1.1-1.65,2.33-3.15a10.57,10.57,0,0,1,3-2.5,5.84,5.84,0,0,0,.55-.45A5.88,5.88,0,0,1,221,18.1a8.1,8.1,0,0,1,2.75-.55l.52-.12a.58.58,0,0,0,.38-.48A1.91,1.91,0,0,0,223.31,16.75Zm-2.52,10.42a4.69,4.69,0,0,0,1.22.17,4.54,4.54,0,0,0,1.15-.15,6.66,6.66,0,0,0,1.27-.5A2.52,2.52,0,0,0,226,24.2a1.81,1.81,0,0,0-.67-1.42,1.34,1.34,0,0,0-1.48-.08,7.93,7.93,0,0,0-2.55,1.55,13.33,13.33,0,0,0-2.05,2.4A15.39,15.39,0,0,0,220.78,27.17Z"/><path class="cls-1" d="M250.88,15.8l1-.45a12.6,12.6,0,0,1,2.27-.75,6.56,6.56,0,0,1,2.43,0,6.41,6.41,0,0,1,3.15,1.08A9.12,9.12,0,0,1,262.08,18a2.21,2.21,0,0,1,.35,2.4c-.17.63-.33,1.23-.5,1.8a11.62,11.62,0,0,1-.65,1.7q-.9,2.05-1.9,4t-2,3.92c-.2.47-.39.94-.57,1.43s-.36,1-.53,1.48a3.86,3.86,0,0,0-.18,1.75,2.38,2.38,0,0,0,1.13,1.5,1.17,1.17,0,0,1,.63,1.27,2,2,0,0,1-1,1.23,13,13,0,0,1-1.9.6,5.54,5.54,0,0,1-4.25-.37,5.36,5.36,0,0,1-2.6-3.37,6.89,6.89,0,0,1-.35-2.1,5.53,5.53,0,0,1,.45-2.1q.55-1.5,1.17-3t1.18-3.1a14.27,14.27,0,0,0,.43-1.42c.12-.48.22-.93.32-1.33-.27-.43-.53-.66-.8-.67a1.34,1.34,0,0,0-.8.22l-1.68,1.08a9,9,0,0,0-1.53,1.23q-1.15,1.2-2.17,2.45a12.89,12.89,0,0,0-1.72,2.75q-.55,1.2-1.18,2.4t-1.18,2.4l-.4.88a1.84,1.84,0,0,0-.18.65,2.72,2.72,0,0,0,.05.73c0,.27.13.65.22,1.15a4.36,4.36,0,0,0-.78.27,1.71,1.71,0,0,1-.72.18q-1.75,0-3.43-.08l-3.42-.17a2.93,2.93,0,0,1-1.3-.35,1.48,1.48,0,0,1-1-2.25q1-2.25,2.05-4.4t2-4.4q.95-2.4,1.7-4.82t1.6-4.87a3.34,3.34,0,0,0-.3-3.05,1.25,1.25,0,0,1-.08-1.2,1.37,1.37,0,0,1,1.13-.6,38.34,38.34,0,0,1,4.5-.45q1.6-.1,3.22-.07l3.28,0q1,0,1.28.38a1.85,1.85,0,0,1,.07,1.38,3.58,3.58,0,0,1-.15.52q-.1.28.3.62ZM236.26,28a1.9,1.9,0,0,0,.52-.8q1-2.55,2-5t1.95-5s0-.08-.15-.15a1.68,1.68,0,0,1-.35-.35,4.15,4.15,0,0,0-1,1.55q-.3.85-.55,1.7-.8,2.2-1.55,4.4t-1.55,4.45a1.86,1.86,0,0,0,.05.45,1.34,1.34,0,0,0,0-.28,1.08,1.08,0,0,1,0-.22Zm20.22-10.5a2.34,2.34,0,0,0-1.62-.75,2.89,2.89,0,0,0-1.58.75Z"/><path class="cls-1" d="M114.83,42.07c14.05,2.74,28.28,4.95,42.53,6.75s28.57,3.11,42.92,3.65c7.17.26,14.36.33,21.53.05a164.34,164.34,0,0,0,21.4-2.08c7-1.25,14.08-3.06,20.39-6.48a26.6,26.6,0,0,0,8.23-6.76,18.78,18.78,0,0,0,3.85-9.89,18.89,18.89,0,0,1-3.67,10,26.93,26.93,0,0,1-8.19,7c-6.31,3.59-13.38,5.56-20.45,7a165.44,165.44,0,0,1-21.5,2.54c-7.21.43-14.43.51-21.64.4C185.8,54,171.4,53,157,51.47S128.42,48,114.15,45.56Z"/></g></g></svg>